<svg width="128" height="128" viewBox="0 0 128 128" fill="none" xmlns="http://www.w3.org/2000/svg">
<rect width="128" height="128" rx="28.16" fill="url(#paint0_linear_124_132)"/>
<path d="M105.805 85.6837L91.859 100.126C91.5558 100.44 91.189 100.69 90.7814 100.861C90.3738 101.032 89.9341 101.12 89.4897 101.12H23.379C23.0636 101.12 22.755 101.031 22.4912 100.864C22.2274 100.697 22.0199 100.459 21.8942 100.18C21.7685 99.9004 21.73 99.5916 21.7835 99.2914C21.837 98.9912 21.9801 98.7126 22.1953 98.4899L36.1518 84.0473C36.4542 83.7344 36.8198 83.4848 37.226 83.3139C37.6324 83.143 38.0707 83.0544 38.5139 83.0537H104.621C104.936 83.0537 105.245 83.1427 105.509 83.3097C105.772 83.4768 105.98 83.7146 106.106 83.9939C106.232 84.2733 106.27 84.582 106.217 84.8822C106.163 85.1824 106.02 85.461 105.805 85.6837ZM91.859 56.6004C91.5558 56.2867 91.189 56.0366 90.7814 55.8656C90.3738 55.6947 89.9341 55.6066 89.4897 55.6069H23.379C23.0636 55.6069 22.755 55.6958 22.4912 55.8629C22.2274 56.0299 22.0199 56.2677 21.8942 56.5471C21.7685 56.8265 21.73 57.1352 21.7835 57.4354C21.837 57.7356 21.9801 58.0141 22.1953 58.2369L36.1518 72.6795C36.4542 72.9924 36.8198 73.242 37.226 73.4129C37.6324 73.5838 38.0707 73.6724 38.5139 73.6731H104.621C104.936 73.6731 105.245 73.5841 105.509 73.4171C105.772 73.25 105.98 73.0122 106.106 72.7329C106.232 72.4535 106.27 72.1447 106.217 71.8445C106.163 71.5444 106.02 71.2658 105.805 71.043L91.859 56.6004ZM23.379 46.2263H89.4897C89.9341 46.2264 90.3738 46.1384 90.7814 45.9674C91.189 45.7965 91.5558 45.5463 91.859 45.2326L105.805 30.79C106.02 30.5673 106.163 30.2887 106.217 29.9885C106.27 29.6883 106.232 29.3796 106.106 29.1002C105.98 28.8209 105.772 28.5831 105.509 28.416C105.245 28.249 104.936 28.16 104.621 28.16H38.5139C38.0707 28.1607 37.6324 28.2493 37.226 28.4202C36.8198 28.5911 36.4542 28.8407 36.1518 29.1536L22.1989 43.5962C21.9839 43.8187 21.8408 44.097 21.7872 44.3968C21.7336 44.6967 21.7718 45.0052 21.8971 45.2844C22.0224 45.5637 22.2293 45.8015 22.4926 45.9688C22.7558 46.1361 23.0639 46.2255 23.379 46.2263Z" fill="white"/>
<defs>
<linearGradient id="paint0_linear_124_132" x1="64" y1="0" x2="64" y2="128" gradientUnits="userSpaceOnUse">
<stop stop-color="#87E3A9"/>
<stop offset="0.525" stop-color="#1EAB52"/>
<stop offset="1" stop-color="#30EA75"/>
</linearGradient>
</defs>
</svg>
